<?xml version="1.0" encoding="UTF-8"?>
<svg version="1.1" xmlns="http://www.w3.org/2000/svg" width="800" height="400">
<path d="M0 0 C264 0 528 0 800 0 C800 132 800 264 800 400 C536 400 272 400 0 400 C0 268 0 136 0 0 Z " fill="#FEFEFE" transform="translate(0,0)"/>
<path d="M0 0 C2.44695251 0.00721772 4.89388131 0.01039429 7.3408432 0.01251221 C32.07503364 0.03912227 56.7400158 0.50718007 81.42098236 2.25714111 C81.42098236 2.91714111 81.42098236 3.57714111 81.42098236 4.25714111 C80.28729218 4.35418335 80.28729218 4.35418335 79.13069916 4.45318604 C46.6808543 7.28389133 14.9587667 12.04176493 -16.89182281 18.87797546 C-22.00659569 19.96268875 -27.13428167 20.89034429 -32.28995514 21.75714111 C-40.18167193 23.09905431 -47.86050758 25.00386237 -55.57901764 27.13214111 C-56.89294743 27.48909665 -58.20699533 27.84561774 -59.52115631 28.20172119 C-67.640523 30.41036259 -75.73935026 32.68548012 -83.79386139 35.12042236 C-86.42783759 35.9114307 -89.06093122 36.68108697 -91.70792389 37.42510986 C-104.82455449 41.13533759 -117.63559318 45.63437395 -130.14151764 51.06964111 C-135.19203163 53.23516474 -140.15239528 54.4527524 -145.57901764 55.25714111 C-145.57901764 55.91714111 -145.57901764 56.57714111 -145.57901764 57.25714111 C-146.49433258 57.60978027 -147.40964752 57.96241943 -148.35269928 58.32574463 C-157.46118437 61.87624669 -166.2762059 65.8044258 -175.01651764 70.19464111 C-175.65499634 70.51395599 -176.29347504 70.83327087 -176.95130157 71.16226196 C-201.88617703 83.68702524 -227.53291496 98.87155595 -245.27433014 120.89385986 C-245.70487701 121.34374268 -246.13542389 121.79362549 -246.57901764 122.25714111 C-247.23901764 122.25714111 -247.89901764 122.25714111 -248.57901764 122.25714111 C-248.84714264 122.80885986 -249.11526764 123.36057861 -249.39151764 123.92901611 C-250.70698348 126.5080215 -252.11750926 129.00796179 -253.57901764 131.50714111 C-254.09464264 132.39917236 -254.61026764 133.29120361 -255.14151764 134.21026611 C-255.61589264 134.88573486 -256.09026764 135.56120361 -256.57901764 136.25714111 C-257.23901764 136.25714111 -257.89901764 136.25714111 -258.57901764 136.25714111 C-258.68214264 137.06151611 -258.78526764 137.86589111 -258.89151764 138.69464111 C-259.43587746 141.51541474 -260.0950658 143.68060323 -261.11026764 146.31964111 C-262.88116327 151.54285116 -262.9229718 156.35176875 -262.76651764 161.81964111 C-262.75298248 162.73294189 -262.73944733 163.64624268 -262.72550201 164.58721924 C-262.69057079 166.8111737 -262.6415335 169.03382063 -262.57901764 171.25714111 C-261.91901764 171.25714111 -261.25901764 171.25714111 -260.57901764 171.25714111 C-259.91901764 174.55714111 -259.25901764 177.85714111 -258.57901764 181.25714111 C-257.91901764 181.25714111 -257.25901764 181.25714111 -256.57901764 181.25714111 C-256.24901764 182.57714111 -255.91901764 183.89714111 -255.57901764 185.25714111 C-254.91901764 185.25714111 -254.25901764 185.25714111 -253.57901764 185.25714111 C-252.98089264 186.20589111 -252.38276764 187.15464111 -251.76651764 188.13214111 C-242.06204343 202.08408084 -222.29827903 210.69235802 -206.66300201 215.60186768 C-205.14573933 216.07894512 -203.63182979 216.56672634 -202.12003326 217.06085205 C-187.45798665 221.85031156 -172.75313996 225.50323124 -157.57901764 228.25714111 C-156.75385651 228.41166748 -155.92869537 228.56619385 -155.07852936 228.72540283 C-125.28770239 234.16248868 -94.52710532 233.45622282 -64.35879898 233.50256729 C-61.92500065 233.50707904 -59.49122971 233.5147892 -57.05744171 233.52310181 C-28.94614603 233.60575196 -1.51223609 231.80067443 26.35848236 227.94464111 C27.4865329 227.79096069 28.61458344 227.63728027 29.77681732 227.47894287 C45.57997702 225.32338228 61.2861379 222.9550092 76.91707611 219.76397705 C79.993788 219.14119489 83.0781894 218.56763871 86.16561127 218.00079346 C89.25330291 217.43317544 92.33664783 216.84268807 95.42098236 216.25714111 C96.63012299 216.03542236 97.83926361 215.81370361 99.08504486 215.58526611 C108.21634747 213.85512457 117.08243075 211.52756791 126.00252533 208.95294189 C128.47415177 208.24184404 130.94900439 207.54310303 133.42488861 206.84698486 C145.52938936 203.43333653 157.57613247 199.84045621 169.5906601 196.12261963 C171.54174256 195.52600207 173.49733668 194.94400884 175.45638275 194.37408447 C184.86128968 191.59691739 193.81606118 187.98206228 202.86507416 184.23980713 C204.81786586 183.43451007 206.77357716 182.6366407 208.72957611 181.83917236 C209.87224945 181.36713379 211.01492279 180.89509521 212.1922226 180.40875244 C215.28957423 179.30401084 218.16745781 178.68386816 221.42098236 178.25714111 C221.42098236 177.59714111 221.42098236 176.93714111 221.42098236 176.25714111 C222.26918549 175.98901611 223.11738861 175.72089111 223.99129486 175.44464111 C231.93036832 172.79246712 238.87298811 169.5140342 246.04988861 165.22979736 C249.14351067 163.41950867 252.2565886 161.81334349 255.48348236 160.25714111 C261.21059026 157.47452207 266.4756157 154.16761365 271.80379486 150.69854736 C272.66746674 150.2228833 273.53113861 149.74721924 274.42098236 149.25714111 C275.08098236 149.58714111 275.74098236 149.91714111 276.42098236 150.25714111 C274.80149194 151.76308792 273.17522262 153.26174779 271.54598236 154.75714111 C270.64106049 155.59245361 269.73613861 156.42776611 268.80379486 157.28839111 C266.42098236 159.25714111 266.42098236 159.25714111 264.42098236 159.25714111 C264.09098236 160.24714111 263.76098236 161.23714111 263.42098236 162.25714111 C246.06745709 179.24144244 219.05379069 192.32994344 196.41316986 200.51739502 C194.12014462 201.36884925 191.84994221 202.27083358 189.57723236 203.17510986 C177.00862673 208.11393522 164.30162707 212.24550071 151.35848236 216.06964111 C150.18914154 216.41542206 150.18914154 216.41542206 148.99617767 216.76818848 C139.91321412 219.44441881 130.80448812 221.99707191 121.6453476 224.39971924 C118.5999254 225.20955665 115.57225473 226.06632168 112.54598236 226.94464111 C107.8371431 228.2467865 103.27861026 228.79450988 98.42098236 229.25714111 C97.76098236 229.58714111 97.10098236 229.91714111 96.42098236 230.25714111 C93.6102761 230.70588386 90.80241626 231.11684814 87.98348236 231.50714111 C80.97647746 232.50750423 74.03343422 233.69005136 67.08773041 235.05181885 C23.16646909 243.62889228 -21.42488158 245.45356831 -66.05924225 245.49737549 C-69.84091704 245.50173868 -73.62236095 245.51557425 -77.40396881 245.53839111 C-109.38012491 245.7269406 -140.67780437 244.18931563 -172.31119537 239.25982666 C-175.20520439 238.80973624 -178.10168041 238.37912618 -180.99893951 237.95050049 C-195.70116596 235.73836547 -210.14024063 232.79171403 -224.51261139 228.96807861 C-227.25281461 228.33277035 -229.97147414 227.83954342 -232.74308014 227.36651611 C-238.46925099 226.3408039 -243.96178029 224.84656622 -249.51651764 223.13214111 C-250.50506744 222.82937256 -251.49361725 222.526604 -252.51212311 222.21466064 C-261.70515539 219.33348176 -270.57824816 215.8208539 -279.46329498 212.11358643 C-282.27890591 210.97382608 -285.14691043 210.00174182 -288.01651764 209.00714111 C-301.79264491 203.74975749 -315.02734908 195.36859349 -326.57901764 186.25714111 C-327.82231842 185.31548096 -327.82231842 185.31548096 -329.09073639 184.35479736 C-332.81767237 181.51608445 -336.4182973 178.73605478 -339.57901764 175.25714111 C-339.57901764 174.59714111 -339.57901764 173.93714111 -339.57901764 173.25714111 C-340.56901764 172.92714111 -341.55901764 172.59714111 -342.57901764 172.25714111 C-343.76651764 169.19464111 -343.76651764 169.19464111 -344.57901764 166.25714111 C-345.23901764 166.25714111 -345.89901764 166.25714111 -346.57901764 166.25714111 C-346.90901764 164.60714111 -347.23901764 162.95714111 -347.57901764 161.25714111 C-348.23901764 161.25714111 -348.89901764 161.25714111 -349.57901764 161.25714111 C-349.90901764 159.60714111 -350.23901764 157.95714111 -350.57901764 156.25714111 C-351.23901764 156.25714111 -351.89901764 156.25714111 -352.57901764 156.25714111 C-354.55044685 149.67788727 -354.88253949 143.66597834 -354.82901764 136.81964111 C-354.8406192 135.34140869 -354.8406192 135.34140869 -354.85245514 133.83331299 C-354.83612339 127.67216043 -354.13305994 122.2204701 -352.57901764 116.25714111 C-351.91901764 116.25714111 -351.25901764 116.25714111 -350.57901764 116.25714111 C-350.43464264 115.30839111 -350.29026764 114.35964111 -350.14151764 113.38214111 C-349.57901764 110.25714111 -349.57901764 110.25714111 -348.57901764 108.25714111 C-347.91901764 108.25714111 -347.25901764 108.25714111 -346.57901764 108.25714111 C-346.48491608 107.69510986 -346.39081451 107.13307861 -346.29386139 106.55401611 C-345.40307674 103.6918228 -343.99029882 101.8594365 -342.14151764 99.50714111 C-341.5240567 98.70792236 -340.90659576 97.90870361 -340.27042389 97.08526611 C-339.71225983 96.48198486 -339.15409576 95.87870361 -338.57901764 95.25714111 C-337.91901764 95.25714111 -337.25901764 95.25714111 -336.57901764 95.25714111 C-336.08401764 93.77214111 -336.08401764 93.77214111 -335.57901764 92.25714111 C-334.91901764 92.25714111 -334.25901764 92.25714111 -333.57901764 92.25714111 C-333.36245514 91.70026611 -333.14589264 91.14339111 -332.92276764 90.56964111 C-331.14867709 87.51655506 -328.75804128 85.48864925 -326.07901764 83.25714111 C-325.51658356 82.78510254 -324.95414948 82.31306396 -324.37467194 81.82672119 C-310.72854554 70.64368849 -295.26582272 61.25082746 -279.32901764 53.75714111 C-278.31541168 53.27793213 -277.30180573 52.79872314 -276.25748444 52.30499268 C-273.36905631 50.94600374 -270.47596544 49.59785978 -267.57901764 48.25714111 C-266.88695221 47.93680908 -266.19488678 47.61647705 -265.48184967 47.28643799 C-255.81375346 42.86165606 -245.80560449 39.45449123 -235.75821686 36.01495361 C-233.13734487 35.10355022 -230.54592721 34.12257805 -227.95401764 33.13214111 C-222.35977423 31.06547794 -216.6160475 29.54177904 -210.85782623 28.00665283 C-207.75921425 27.17508724 -204.78670756 26.3405096 -201.80558014 25.14385986 C-199.57221249 24.25443099 -197.71305314 23.90847636 -195.32901764 23.69464111 C-191.7898425 23.674767 -191.7898425 23.674767 -190.57901764 22.25714111 C-188.07123023 21.74818057 -185.55079824 21.35757241 -183.02433014 20.95245361 C-180.20521909 20.38351737 -177.53423152 19.6918983 -174.77433014 18.90167236 C-167.0534885 16.7590964 -159.19382661 15.31796281 -151.32901764 13.81964111 C-150.53554932 13.6675116 -149.74208099 13.51538208 -148.92456818 13.35864258 C-144.18355489 12.44970443 -139.44088371 11.54991084 -134.69687653 10.65673828 C-132.77705684 10.29450711 -130.8579275 9.92862183 -128.93888092 9.56231689 C-118.09410128 7.50218572 -107.51050603 5.90764239 -96.47745514 5.46807861 C-92.66596615 5.26184574 -88.97899681 4.81252184 -85.20401764 4.25714111 C-78.93357425 3.36136349 -72.7436009 2.92545033 -66.42316437 2.66210938 C-62.06441792 2.47020402 -57.72996236 2.20157011 -53.38712311 1.77960205 C-35.57965384 0.06446076 -17.86998265 -0.05956415 0 0 Z " fill="#1F4E79" transform="translate(441.57901763916016,79.74285888671875)"/>
<path d="M0 0 C7.82874773 -0.05084651 15.65745261 -0.08579517 23.48632812 -0.10986328 C26.14786548 -0.11876745 28.80918615 -0.13353257 31.47070312 -0.15087891 C35.30341302 -0.17522721 39.13597668 -0.18650621 42.96875 -0.1953125 C44.15239136 -0.20563507 45.33603271 -0.21595764 46.55554199 -0.22659302 C56.26726594 -0.22790225 63.38022663 0.65018886 71 7 C71 7.66 71 8.32 71 9 C71.66 9 72.32 9 73 9 C73 11.64 73 14.28 73 17 C72.34 17 71.68 17 71 17 C70.74863281 17.61359375 70.49726562 18.2271875 70.23828125 18.859375 C68.17403979 22.42784288 64.76756856 23.61687732 61 25 C58 25.25 58 25.25 56 25 C56 25.66 56 26.32 56 27 C57.11375 27.061875 58.2275 27.12375 59.375 27.1875 C65.37764807 27.92579361 71.03045982 30.63891794 75.75390625 34.39453125 C77.81729061 37.05299825 77.65311716 39.44789748 77.546875 42.71484375 C76.54042375 46.92037219 73.50863077 48.780254 70 51 C69.0925 51.5775 68.185 52.155 67.25 52.75 C58.55671016 56.09357302 49.53827744 56.28150661 40.33203125 56.1953125 C39.17120529 56.1924826 38.01037933 56.18965271 36.81437683 56.18673706 C33.14697474 56.17564091 29.4798269 56.15055629 25.8125 56.125 C23.30924835 56.11495654 20.80599282 56.10583309 18.30273438 56.09765625 C12.20173779 56.07573629 6.10088707 56.0423656 0 56 C0 55.67 0 55.34 0 55 C1.093125 54.87625 2.18625 54.7525 3.3125 54.625 C7.07381802 54.24535199 7.07381802 54.24535199 10 52 C10.45770852 49.8798745 10.45770852 49.8798745 10.38818359 47.3984375 C10.39764008 46.44404785 10.40709656 45.4896582 10.4168396 44.50634766 C10.40773056 42.95633057 10.40773056 42.95633057 10.3984375 41.375 C10.40130768 40.31716309 10.40417786 39.25932617 10.40713501 38.16943359 C10.40917904 35.93000759 10.40362564 33.69056386 10.39111328 31.45117188 C10.37506499 28.01391866 10.39095117 24.57784143 10.41015625 21.140625 C10.40817388 18.96874739 10.40433033 16.79687052 10.3984375 14.625 C10.40451019 13.59165527 10.41058289 12.55831055 10.4168396 11.49365234 C10.40738312 10.5392627 10.39792664 9.58487305 10.38818359 8.6015625 C10.38579681 7.75932129 10.38341003 6.91708008 10.38095093 6.04931641 C10.25523712 5.37304199 10.12952332 4.69676758 10 4 C6.55549263 1.70366176 4.06187717 1.45983515 0 1 C0 0.67 0 0.34 0 0 Z " fill="#21517B" transform="translate(480,181)"/>
<path d="M0 0 C0.99 0.495 0.99 0.495 2 1 C0.7036447 3.5927106 -0.37982652 3.80146905 -3 5 C-4.35569092 5.66213501 -4.35569092 5.66213501 -5.73876953 6.33764648 C-6.77630371 6.84368408 -7.81383789 7.34972168 -8.8828125 7.87109375 C-28.21069465 17.35764083 -46.33974531 27.23912029 -63 41 C-63.91136719 41.70253906 -64.82273437 42.40507812 -65.76171875 43.12890625 C-68.19134088 44.98085199 -68.19134088 44.98085199 -70 48 C-70.66 48 -71.32 48 -72 48 C-72.33 48.99 -72.66 49.98 -73 51 C-73.66 51 -74.32 51 -75 51 C-75.268125 51.7425 -75.53625 52.485 -75.8125 53.25 C-76.95276751 55.89061949 -78.09380306 57.85552844 -80 60 C-80.66 60 -81.32 60 -82 60 C-82.268125 60.845625 -82.53625 61.69125 -82.8125 62.5625 C-84.0478595 66.13854067 -85.476988 69.53860908 -87 73 C-87.66 73 -88.32 73 -89 73 C-91.3917395 89.74217652 -91.31659216 104.89800239 -81.77734375 119.25 C-80 122 -80 122 -79 125 C-78.01 125.33 -77.02 125.66 -76 126 C-74.52734375 127.56640625 -74.52734375 127.56640625 -72.9375 129.5625 C-60.97602807 143.5340948 -43.3780848 152.24577401 -27 160 C-26.2059375 160.38671875 -25.411875 160.7734375 -24.59375 161.171875 C-17.72126859 164.39665474 -10.47418947 166.75039476 -3.30126953 169.20898438 C-1.02967979 169.98979816 1.23708888 170.78358062 3.50390625 171.578125 C12.27727888 174.61693083 21.0328611 177.12135983 30.09765625 179.12890625 C33.52493838 179.89395521 36.9155398 180.73710793 40.3125 181.625 C45.15417098 182.85023919 49.99353216 183.70609593 54.92578125 184.4765625 C58.0054715 185.00093162 61.0190179 185.6717855 64.0625 186.375 C82.98873658 190.43791379 102.18557993 192.43475455 121.4375 194.1875 C122.35791077 194.27208466 123.27832153 194.35666931 124.22662354 194.44381714 C145.77123678 196.40497184 167.13388963 197.16554119 188.77026367 197.13037109 C192.66393978 197.1250323 196.55749934 197.13033769 200.45117188 197.13671875 C221.49081894 197.14287836 242.53900359 196.88194764 263.47265625 194.58984375 C267.43680467 194.16282467 271.40260063 193.7634892 275.37109375 193.37890625 C297.10625134 191.22622792 318.69318976 188.16002503 340.15625 184.12109375 C341.43569992 183.88095047 341.43569992 183.88095047 342.74099731 183.63595581 C346.8971243 182.85290024 351.04979004 182.05563314 355.19873047 181.23535156 C363.17470094 179.68638829 370.83541659 178.48790055 379 179 C379 179.33 379 179.66 379 180 C372.30019074 181.99115827 365.95414922 183.33770007 359 184 C358.34 184.33 357.68 184.66 357 185 C354.18929374 185.44874275 351.3814339 185.85970703 348.5625 186.25 C341.5554951 187.25036312 334.61245186 188.43291025 327.66674805 189.79467773 C283.74548673 198.37175116 239.15413606 200.1964272 194.51977539 200.24023438 C190.7381006 200.24459757 186.95665669 200.25843314 183.17504883 200.28125 C151.19889273 200.46979949 119.90121327 198.93217452 88.26782227 194.00268555 C85.37381325 193.55259513 82.47733723 193.12198507 79.58007812 192.69335938 C64.87785168 190.48122436 50.43877701 187.53457291 36.06640625 183.7109375 C33.32620303 183.07562924 30.6075435 182.58240231 27.8359375 182.109375 C22.10976665 181.08366279 16.61723735 179.58942511 11.0625 177.875 C10.0739502 177.57223145 9.08540039 177.26946289 8.06689453 176.95751953 C-1.12613775 174.07634064 -9.99923052 170.56371279 -18.88427734 166.85644531 C-21.69988828 165.71668497 -24.56789279 164.7446007 -27.4375 163.75 C-41.21362727 158.49261637 -54.44833144 150.11145237 -66 141 C-67.24330078 140.05833984 -67.24330078 140.05833984 -68.51171875 139.09765625 C-72.23865473 136.25894334 -75.83927966 133.47891366 -79 130 C-79 129.34 -79 128.68 -79 128 C-79.99 127.67 -80.98 127.34 -82 127 C-83.1875 123.9375 -83.1875 123.9375 -84 121 C-84.66 121 -85.32 121 -86 121 C-86.495 118.525 -86.495 118.525 -87 116 C-87.66 116 -88.32 116 -89 116 C-89.495 113.525 -89.495 113.525 -90 111 C-90.66 111 -91.32 111 -92 111 C-93.97142921 104.42074616 -94.30352185 98.40883723 -94.25 91.5625 C-94.25773437 90.57701172 -94.26546875 89.59152344 -94.2734375 88.57617188 C-94.25710575 82.41501932 -93.5540423 76.96332899 -92 71 C-91.34 71 -90.68 71 -90 71 C-89.855625 70.05125 -89.71125 69.1025 -89.5625 68.125 C-89 65 -89 65 -88 63 C-87.34 63 -86.68 63 -86 63 C-85.90589844 62.43796875 -85.81179687 61.8759375 -85.71484375 61.296875 C-84.8240591 58.43468169 -83.41128118 56.60229539 -81.5625 54.25 C-80.63630859 53.05117187 -80.63630859 53.05117187 -79.69140625 51.828125 C-79.13324219 51.22484375 -78.57507813 50.6215625 -78 50 C-77.34 50 -76.68 50 -76 50 C-75.67 49.01 -75.34 48.02 -75 47 C-74.34 47 -73.68 47 -73 47 C-72.7834375 46.443125 -72.566875 45.88625 -72.34375 45.3125 C-70.56965946 42.25941395 -68.17902364 40.23150814 -65.5 38 C-64.93756592 37.52796143 -64.37513184 37.05592285 -63.7956543 36.56958008 C-56.30652904 30.4322243 -48.18695291 25.15192808 -40 20 C-39.21955322 19.50862549 -38.43910645 19.01725098 -37.63500977 18.51098633 C-31.38924167 14.66738896 -24.94729518 11.42732505 -18.3125 8.3125 C-16.82266602 7.60383789 -16.82266602 7.60383789 -15.30273438 6.88085938 C-12.54162274 5.57277127 -9.77315749 4.28231478 -7 3 C-6.27603027 2.65888184 -5.55206055 2.31776367 -4.80615234 1.96630859 C-3.23116996 1.24825999 -1.61867497 0.61323295 0 0 Z " fill="#47769F" transform="translate(181,125)"/>
<path d="M0 0 C0.99 0 1.98 0 3 0 C3 6.6 3 13.2 3 20 C2.01 20 1.02 20 0 20 C-0.33 18.35 -0.66 16.7 -1 15 C-1.99 14.67 -2.98 14.34 -4 14 C-4.53625 13.401875 -5.0725 12.80375 -5.625 12.1875 C-12.30399961 6.03578983 -20.99811743 4.63988303 -29.7578125 4.71484375 C-36.82019625 5.33599316 -43.99259623 7.83106708 -49 13 C-50.31165257 15.11660427 -50.31165257 15.11660427 -51 17 C-51.66 17 -52.32 17 -53 17 C-53.08811914 20.33316277 -53.14076197 23.66602047 -53.1875 27 C-53.21263672 27.93457031 -53.23777344 28.86914062 -53.26367188 29.83203125 C-53.33517413 36.64857923 -52.75285724 42.36993695 -48.4921875 47.98828125 C-40.44574028 54.57703876 -32.2491094 55.92705512 -22 55 C-13.39639028 53.67636774 -6.40110931 50.50185586 1 46 C1 47.65 1 49.3 1 51 C-1.15940784 52.16159158 -3.32595247 53.3038895 -5.5 54.4375 C-6.10070312 54.76298828 -6.70140625 55.08847656 -7.3203125 55.42382812 C-11.80685215 57.73869167 -15.94942787 58.7154212 -21 59 C-21.82935059 59.04922607 -22.65870117 59.09845215 -23.51318359 59.14916992 C-40.14750716 59.91429469 -55.48256557 59.05953005 -69.21484375 48.6484375 C-71 47 -71 47 -73 44 C-73 43.01 -73 42.02 -73 41 C-73.66 41 -74.32 41 -75 41 C-77.98386177 33.54034559 -77.46540044 27.39620133 -75 20 C-74.34 20 -73.68 20 -73 20 C-72.92652344 19.42121094 -72.85304688 18.84242188 -72.77734375 18.24609375 C-70.64388666 12.08158206 -62.28342921 7.9546899 -56.75 5.125 C-51.2432242 2.48248678 -46.23242076 0.74833937 -40.078125 0.734375 C-38.96953125 0.73179687 -37.8609375 0.72921875 -36.71875 0.7265625 C-35.00171875 0.73816406 -35.00171875 0.73816406 -33.25 0.75 C-32.12078125 0.74226562 -30.9915625 0.73453125 -29.828125 0.7265625 C-23.72333878 0.74069395 -18.05512145 1.13914078 -12.10620117 2.54077148 C-8.98827496 3.22059288 -6.16722107 3.32318582 -3 3 C-1.2488427 1.5833253 -1.2488427 1.5833253 0 0 Z " fill="#21517C" transform="translate(467,179)"/>
<path d="M0 0 C14.52 0 29.04 0 44 0 C44 0.33 44 0.66 44 1 C43.09507812 1.09087891 43.09507812 1.09087891 42.171875 1.18359375 C40.97304688 1.30927734 40.97304688 1.30927734 39.75 1.4375 C38.96109375 1.51871094 38.1721875 1.59992188 37.359375 1.68359375 C34.70381637 1.99511197 34.70381637 1.99511197 31 3 C31 18.84 31 34.68 31 51 C35.092765 52.364255 38.90122953 52.18423053 43.1875 52.1875 C44.4259668 52.20586914 44.4259668 52.20586914 45.68945312 52.22460938 C53.77128737 52.24371537 60.46908405 51.16398005 67 46 C69.11701923 43.59097812 69.97710794 42.06867617 71 39 C71.66 39 72.32 39 73 39 C73 38.01 73 37.02 73 36 C74.485 36.495 74.485 36.495 76 37 C75.85820962 39.22942748 75.71140302 41.45853628 75.5625 43.6875 C75.44068359 45.54955078 75.44068359 45.54955078 75.31640625 47.44921875 C75 51 75 51 74 56 C49.58 56 25.16 56 0 56 C0 55.67 0 55.34 0 55 C1.6396875 54.8453125 1.6396875 54.8453125 3.3125 54.6875 C7.44808464 53.94647262 7.44808464 53.94647262 10 51 C10.43360604 48.72337237 10.43360604 48.72337237 10.34057617 46.16137695 C10.34023628 44.69019157 10.34023628 44.69019157 10.33988953 43.18928528 C10.32440567 42.13295395 10.30892181 41.07662262 10.29296875 39.98828125 C10.28872391 38.90491989 10.28447906 37.82155853 10.28010559 36.70536804 C10.26329569 33.24082723 10.22563848 29.77686538 10.1875 26.3125 C10.17245619 23.96550318 10.15876726 21.61849726 10.14648438 19.27148438 C10.11338447 13.5140994 10.0615856 7.7571479 10 2 C6.7 1.67 3.4 1.34 0 1 C0 0.67 0 0.34 0 0 Z " fill="#1A4977" transform="translate(304,181)"/>
<path d="M0 0 C16.83 0 33.66 0 51 0 C51 0.33 51 0.66 51 1 C49.37565503 1.17293407 47.7504623 1.33790404 46.125 1.5 C44.76761719 1.63921875 44.76761719 1.63921875 43.3828125 1.78125 C38.93057808 2.0691543 34.46153339 2 30 2 C30.33 9.59 30.66 17.18 31 25 C32.65 25.33 34.3 25.66 36 26 C36 26.33 36 26.66 36 27 C34.35 27.33 32.7 27.66 31 28 C30.91298961 31.60401481 30.85960612 35.20776012 30.8125 38.8125 C30.78736328 39.83666016 30.76222656 40.86082031 30.73632812 41.91601562 C30.72666016 42.89892578 30.71699219 43.88183594 30.70703125 44.89453125 C30.6913208 45.80050049 30.67561035 46.70646973 30.65942383 47.63989258 C30.81510179 50.04629351 30.81510179 50.04629351 32.32226562 51.7734375 C34.92161407 53.67377606 37.52990618 53.78107703 40.6875 54.1875 C41.86699219 54.34605469 43.04648437 54.50460938 44.26171875 54.66796875 C45.16535156 54.77753906 46.06898438 54.88710937 47 55 C47 55.33 47 55.66 47 56 C31.49 56 15.98 56 0 56 C0 55.67 0 55.34 0 55 C1.093125 54.87625 2.18625 54.7525 3.3125 54.625 C7.07381802 54.24535199 7.07381802 54.24535199 10 52 C10.45770852 49.8798745 10.45770852 49.8798745 10.38818359 47.3984375 C10.39764008 46.44404785 10.40709656 45.4896582 10.4168396 44.50634766 C10.40773056 42.95633057 10.40773056 42.95633057 10.3984375 41.375 C10.40130768 40.31716309 10.40417786 39.25932617 10.40713501 38.16943359 C10.40917904 35.93000759 10.40362564 33.69056386 10.39111328 31.45117188 C10.37506499 28.01391866 10.39095117 24.57784143 10.41015625 21.140625 C10.40817388 18.96874739 10.40433033 16.79687052 10.3984375 14.625 C10.40451019 13.59165527 10.41058289 12.55831055 10.4168396 11.49365234 C10.40738312 10.5392627 10.39792664 9.58487305 10.38818359 8.6015625 C10.38579681 7.75932129 10.38341003 6.91708008 10.38095093 6.04931641 C10.25523712 5.37304199 10.12952332 4.69676758 10 4 C6.55549263 1.70366176 4.06187717 1.45983515 0 1 C0 0.67 0 0.34 0 0 Z " fill="#1B4978" transform="translate(480,181)"/>
<path d="M0 0 C3.24544661 0.01081057 6.49085138 0.01042728 9.73631287 0.00998116 C27.99331072 0.01065761 46.20010272 0.24710939 64.43701172 1.19561768 C64.43701172 1.52561768 64.43701172 1.85561768 64.43701172 2.19561768 C60.40035243 3.16190968 56.66029003 3.30542136 52.51513672 3.27740479 C51.83474996 3.27439487 51.15436319 3.27138496 50.45335865 3.26828384 C48.97494953 3.26123351 47.49654989 3.25190669 46.0181675 3.24056053 C43.64449174 3.22264042 41.27086368 3.21117138 38.8971405 3.20155334 C35.5055858 3.18776875 32.11404576 3.17229181 28.72250366 3.15570068 C-43.43578704 2.82598799 -113.25198431 7.7821377 -183.65087891 24.28204346 C-186.83185439 25.02717372 -190.01683782 25.75299955 -193.20361328 26.47296143 C-207.131616 29.6980961 -220.59173248 34.38795192 -234.10205078 39.01641846 C-238.37824451 40.47338909 -242.66709354 41.89040553 -246.95947266 43.29888916 C-249.59709037 44.17247591 -249.59709037 44.17247591 -252.22509766 45.33258057 C-255.06546144 46.38110667 -256.69381415 46.01538171 -259.56298828 45.19561768 C-257.26505258 42.89768198 -255.89565356 42.52392746 -252.81298828 41.57061768 C-247.74196166 39.94715951 -242.75416957 38.16936575 -237.76489258 36.30987549 C-228.34409325 32.80484021 -218.94169426 29.73769936 -209.21533203 27.20343018 C-205.6760871 26.30068869 -205.6760871 26.30068869 -202.83251953 25.09796143 C-200.57959369 24.20221983 -198.71648612 23.84869859 -196.31298828 23.63311768 C-192.77381315 23.61324356 -192.77381315 23.61324356 -191.56298828 22.19561768 C-189.05520087 21.68665713 -186.53476888 21.29604897 -184.00830078 20.89093018 C-181.18918973 20.32199393 -178.51820216 19.63037486 -175.75830078 18.84014893 C-168.03745914 16.69757296 -160.17779725 15.25643938 -152.31298828 13.75811768 C-151.51951996 13.60598816 -150.72605164 13.45385864 -149.90853882 13.29711914 C-145.16752553 12.38818099 -140.42485435 11.4883874 -135.68084717 10.59521484 C-133.76102748 10.23298367 -131.84189814 9.86709839 -129.92285156 9.50079346 C-119.07807192 7.44066228 -108.49447667 5.84611896 -97.46142578 5.40655518 C-93.6499368 5.2003223 -89.96296745 4.75099841 -86.18798828 4.19561768 C-79.91684226 3.29973967 -73.72613335 2.86346214 -67.40493774 2.60072327 C-63.0582028 2.40967781 -58.73663267 2.14171948 -54.40625 1.71588135 C-36.26036125 -0.04804385 -18.20932791 -0.0762527 0 0 Z " fill="#3B6F9A" transform="translate(442.56298828125,79.80438232421875)"/>
<path d="M0 0 C0 0.33 0 0.66 0 1 C-6.69980926 2.99115827 -13.04585078 4.33770007 -20 5 C-20.66 5.33 -21.32 5.66 -22 6 C-24.81070626 6.44874275 -27.6185661 6.85970703 -30.4375 7.25 C-37.4445049 8.25036312 -44.38754814 9.43291025 -51.33325195 10.79467773 C-95.25451327 19.37175116 -139.84586394 21.1964272 -184.48022461 21.24023438 C-188.2618994 21.24459757 -192.04334331 21.25843314 -195.82495117 21.28125 C-222.68577613 21.4400079 -249.3757718 20.92589289 -276 17 C-276 16.67 -276 16.34 -276 16 C-270.6695109 16.12065372 -265.33912261 16.24497345 -260.00878906 16.37231445 C-258.2054257 16.4149249 -256.40204065 16.45662984 -254.59863281 16.49731445 C-246.02704662 16.69125258 -237.46395208 16.89354102 -228.90382385 17.3901825 C-216.01456022 18.13410102 -203.13767756 18.15135306 -190.22973633 18.13037109 C-186.33606022 18.1250323 -182.44250066 18.13033769 -178.54882812 18.13671875 C-157.50918106 18.14287836 -136.46099641 17.88194764 -115.52734375 15.58984375 C-111.56319533 15.16282467 -107.59739937 14.7634892 -103.62890625 14.37890625 C-81.89374866 12.22622792 -60.30681024 9.16002503 -38.84375 5.12109375 C-37.99078339 4.96099823 -37.13781677 4.80090271 -36.25900269 4.63595581 C-32.1028757 3.85290024 -27.95020996 3.05563314 -23.80126953 2.23535156 C-15.82529906 0.68638829 -8.16458341 -0.51209945 0 0 Z " fill="#3F709B" transform="translate(560,304)"/>
<path d="M0 0 C1.42708292 -0.00169891 2.85416642 -0.00290489 4.28125 -0.00390625 C5.47331055 -0.0049939 5.47331055 -0.0049939 6.68945312 -0.00610352 C13.61980636 0.01220363 17.87780111 1.41037669 23.2265625 5.828125 C25.88090964 9.07882326 25.95345463 11.66934936 25.57421875 15.75390625 C24.79189054 18.81403361 23.64274953 20.2899856 21 22 C20.34 22 19.68 22 19 22 C19 22.66 19 23.32 19 24 C14.21057833 25.96489094 9.13138546 27.10091543 4 26 C1.7421875 24.6796875 1.7421875 24.6796875 0 22 C-0.49232732 18.23880364 -0.37487985 14.53482019 -0.25 10.75 C-0.23195313 9.71875 -0.21390625 8.6875 -0.1953125 7.625 C-0.14822712 5.08238936 -0.0824805 2.54166838 0 0 Z " fill="#F3F5F7" transform="translate(510,209)"/>
<path d="M0 0 C12.41040462 0 12.41040462 0 16.625 2.375 C17.44226563 2.81585938 18.25953125 3.25671875 19.1015625 3.7109375 C21 5 21 5 22 7 C22.06950541 8.54023996 22.08452357 10.08334988 22.0625 11.625 C22.05347656 12.44226563 22.04445313 13.25953125 22.03515625 14.1015625 C22.02355469 14.72804687 22.01195312 15.35453125 22 16 C21.34 16 20.68 16 20 16 C19.75378906 16.62390625 19.50757813 17.2478125 19.25390625 17.890625 C17.7172698 20.47562091 16.76540799 20.85225143 13.9375 21.75 C13.22464844 21.99234375 12.51179687 22.2346875 11.77734375 22.484375 C7.91382063 23.20165355 3.92954189 23 0 23 C0 15.41 0 7.82 0 0 Z " fill="#F5F6F8" transform="translate(510,183)"/>
<path d="M0 0 C0.99 0.495 0.99 0.495 2 1 C0.38050958 2.50594681 -1.24575974 4.00460668 -2.875 5.5 C-3.77992188 6.3353125 -4.68484375 7.170625 -5.6171875 8.03125 C-8 10 -8 10 -10 10 C-10.33 10.99 -10.66 11.98 -11 13 C-28.00203308 29.6402877 -54.51166534 42.67144535 -76.6875 50.765625 C-79.15701884 51.68587023 -81.57465935 52.64665944 -84 53.671875 C-84.67603271 53.95466309 -85.35206543 54.23745117 -86.04858398 54.52880859 C-87.36160652 55.08050409 -88.67123983 55.64035808 -89.97680664 56.20947266 C-92.64868204 57.31977811 -94.52900499 58.06501697 -97.43359375 57.6640625 C-98.20896484 57.33535156 -98.20896484 57.33535156 -99 57 C-95.25811721 53.70834374 -90.9644362 52.29927514 -86.375 50.5625 C-68.27412888 43.49508659 -50.24958727 35.74289004 -34 25 C-33.38753418 24.59587891 -32.77506836 24.19175781 -32.14404297 23.77539062 C-25.1297255 19.74889588 -25.1297255 19.74889588 -20 14 C-20.99 13.505 -20.99 13.505 -22 13 C-21.36908447 12.64172119 -20.73816895 12.28344238 -20.08813477 11.91430664 C-17.24530263 10.29870948 -14.40388601 8.68063903 -11.5625 7.0625 C-10.56927734 6.49853516 -9.57605469 5.93457031 -8.55273438 5.35351562 C-7.60849609 4.81533203 -6.66425781 4.27714844 -5.69140625 3.72265625 C-4.81685791 3.22515869 -3.94230957 2.72766113 -3.04125977 2.21508789 C-1.07742483 1.15939808 -1.07742483 1.15939808 0 0 Z " fill="#42729C" transform="translate(716,229)"/>
<path d="M0 0 C3.27914383 0.01893027 6.55823048 0.02310068 9.83742142 0.02683258 C28.19596308 0.04999126 46.51096239 0.31786656 64.84899902 1.26428223 C64.84899902 1.59428223 64.84899902 1.92428223 64.84899902 2.26428223 C60.76951416 3.2430949 56.97383774 3.37951551 52.78430176 3.36193848 C52.09037323 3.36047821 51.3964447 3.35901794 50.68148804 3.35751343 C49.17452215 3.35371464 47.6675607 3.34760568 46.16061211 3.33944702 C43.73495982 3.32652854 41.3093634 3.32012362 38.88368225 3.31530762 C32.8303444 3.30201343 26.77705632 3.27841471 20.72375488 3.25390625 C14.82670807 3.23034305 8.92967868 3.21198114 3.03259277 3.20178223 C2.20120159 3.20026154 1.36981041 3.19874084 0.51322556 3.19717407 C-17.38599332 3.17613056 -35.26357218 3.64767579 -53.15100098 4.26428223 C-53.15100098 3.93428223 -53.15100098 3.60428223 -53.15100098 3.26428223 C-35.61439185 -0.69376777 -17.86104834 -0.12246267 0 0 Z " fill="#2E6794" transform="translate(442.1510009765625,79.7357177734375)"/>
<path d="M0 0 C0.87140625 0.19335938 1.7428125 0.38671875 2.640625 0.5859375 C9.4068921 2.06514308 16.15690182 3.38871189 22.99609375 4.4765625 C26.04882311 5.00850754 29.04317069 5.6790951 32.0625 6.375 C53.7566114 11.07459963 75.92243484 13.06450595 98 15 C98 15.33 98 15.66 98 16 C64.47458596 16.70415105 31.08181743 11.69675511 -1 2 C-0.67 1.34 -0.34 0.68 0 0 Z " fill="#41719B" transform="translate(213,305)"/>
<path d="M0 0 C0.99 0 1.98 0 3 0 C3 6.6 3 13.2 3 20 C2.01 20 1.02 20 0 20 C-0.495 17.525 -0.495 17.525 -1 15 C-1.99 14.67 -2.98 14.34 -4 14 C-4.804375 13.1028125 -4.804375 13.1028125 -5.625 12.1875 C-8.45560778 9.58036126 -11.25521489 8.39081849 -14.78125 6.9296875 C-16.90676012 6.03906882 -18.95071028 5.05258972 -21 4 C-17.54337669 1.69558446 -16.05142119 1.74139865 -12 2 C-11.34 2.33 -10.68 2.66 -10 3 C-5.2594919 3.55163629 -5.2594919 3.55163629 -1.25 1.5 C-0.8375 1.005 -0.425 0.51 0 0 Z " fill="#325983" transform="translate(467,179)"/>
<path d="M0 0 C0 0.33 0 0.66 0 1 C-6.69980926 2.99115827 -13.04585078 4.33770007 -20 5 C-20.66 5.33 -21.32 5.66 -22 6 C-24.91487796 6.47081877 -27.82631715 6.90376554 -30.75 7.3125 C-39.34988895 8.54442917 -47.88010877 10.02633544 -56.39941406 11.72973633 C-62.03490129 12.80995916 -67.2570848 13.3437859 -73 13 C-73.66 12.34 -74.32 11.68 -75 11 C-74.0205542 10.84442627 -73.0411084 10.68885254 -72.03198242 10.52856445 C-67.41646966 9.79413712 -62.80190906 9.0538262 -58.1875 8.3125 C-57.35132141 8.17849792 -56.51514282 8.04449585 -55.65362549 7.90643311 C-43.62237142 5.97405949 -31.63247711 3.91653114 -19.69213867 1.47387695 C-13.04672985 0.17000024 -6.76847309 -0.25425396 0 0 Z " fill="#3A6E99" transform="translate(560,304)"/>
<path d="M0 0 C0.99 0.33 1.98 0.66 3 1 C2.85820962 3.22942748 2.71140302 5.45853628 2.5625 7.6875 C2.48128906 8.92886719 2.40007812 10.17023438 2.31640625 11.44921875 C2 15 2 15 1 20 C-4.94 19.67 -10.88 19.34 -17 19 C-17 18.34 -17 17.68 -17 17 C-17.99 16.67 -18.98 16.34 -20 16 C-18.80375 15.7525 -17.6075 15.505 -16.375 15.25 C-10.64366986 13.8095595 -6.13736204 11.11885386 -3 6 C-2.67 5.01 -2.34 4.02 -2 3 C-1.34 3 -0.68 3 0 3 C0 2.01 0 1.02 0 0 Z " fill="#26557F" transform="translate(377,217)"/>
<path d="M0 0 C-1.98 0.33 -3.96 0.66 -6 1 C-6 1.66 -6 2.32 -6 3 C-10.76457605 4.6364279 -15.529398 6.27213727 -20.29443359 7.90722656 C-21.91005865 8.46172425 -23.52562032 9.01640665 -25.14111328 9.57128906 C-27.4845274 10.37615665 -29.82813231 11.18046473 -32.171875 11.984375 C-32.93552368 12.24633667 -33.69917236 12.50829834 -34.48596191 12.77819824 C-39.82153738 14.60509514 -45.16838203 16.39507622 -50.52832031 18.14941406 C-53.05317374 18.98489616 -53.05317374 18.98489616 -55.64746094 20.13183594 C-58.49722997 21.18349417 -60.12139886 20.82245747 -63 20 C-60.7020643 17.7020643 -59.33266528 17.32830978 -56.25 16.375 C-51.17897338 14.75154184 -46.19118129 12.97374807 -41.2019043 11.11425781 C-31.78110497 7.60922253 -22.37870598 4.54208169 -12.65234375 2.0078125 C-9.09082741 1.10087093 -9.09082741 1.10087093 -6.1484375 -0.15625 C-3.63995667 -1.14139884 -2.4878372 -0.92142119 0 0 Z " fill="#46769F" transform="translate(246,105)"/>
<path d="M0 0 C5.10881026 0.11794522 10.21741364 0.24217047 15.32592773 0.37231445 C17.06514288 0.41572573 18.80440235 0.45739612 20.54370117 0.49731445 C23.03838488 0.55486768 25.5328441 0.6186042 28.02734375 0.68359375 C29.2007859 0.70866249 29.2007859 0.70866249 30.39793396 0.73423767 C35.88612829 0.88612829 35.88612829 0.88612829 37 2 C46.51973872 3.32679493 56.10214769 3.22371635 65.6953125 3.31640625 C67.49706458 3.33701257 69.29881223 3.35800991 71.10055542 3.37937927 C75.81205626 3.43422057 80.52359795 3.483795 85.23516846 3.53222656 C90.05525285 3.58272104 94.87527893 3.6382603 99.6953125 3.69335938 C109.13015835 3.80047589 118.56505513 3.90202147 128 4 C128 4.33 128 4.66 128 5 C117.39151156 5.07069369 106.7830825 5.12339813 96.17440319 5.15543652 C91.24403025 5.17084254 86.31382268 5.19159736 81.38354492 5.22631836 C54.10719131 5.41328419 27.03825259 4.98182344 0 1 C0 0.67 0 0.34 0 0 Z " fill="#6E90B0" transform="translate(284,320)"/>
<path d="M0 0 C-3.50779784 2.33853189 -7.03390903 3.3369917 -11.03515625 4.49609375 C-12.22509438 4.84741112 -12.22509438 4.84741112 -13.43907166 5.20582581 C-15.97883165 5.95451598 -18.52059171 6.69614018 -21.0625 7.4375 C-22.74688408 7.93246896 -24.43113047 8.42790673 -26.11523438 8.92382812 C-28.55873742 9.64333694 -31.00255772 10.36158604 -33.44790649 11.07479858 C-38.31759571 12.49553723 -43.16725533 13.96506906 -47.98999023 15.53930664 C-50.37041475 16.0848989 -52.56610807 16.07818775 -55 16 C-50.70578402 11.92179086 -46.65768017 10.80914297 -41.0625 9.5 C-39.35519961 9.07529922 -37.64816982 8.64950926 -35.94140625 8.22265625 C-35.1023877 8.01656738 -34.26336914 7.81047852 -33.39892578 7.59814453 C-25.78979465 5.70089527 -18.30372786 3.55401685 -11 0.6875 C-6.96345353 -0.84483743 -4.24418228 -1.37649155 0 0 Z " fill="#376C98" transform="translate(615,288)"/>
<path d="M0 0 C0.66 0.66 1.32 1.32 2 2 C-2.28223025 2.94381795 -6.56488429 3.88568408 -10.84790039 4.82592773 C-12.2975557 5.14443319 -13.74710433 5.46342467 -15.1965332 5.78295898 C-25.11020529 7.96802729 -35.03786145 10.04669277 -45 12 C-45 11.34 -45 10.68 -45 10 C-44.28972656 9.79503906 -43.57945312 9.59007813 -42.84765625 9.37890625 C-41.92855469 9.10949219 -41.00945312 8.84007813 -40.0625 8.5625 C-39.14597656 8.29566406 -38.22945312 8.02882813 -37.28515625 7.75390625 C-35.0597507 7.20973949 -35.0597507 7.20973949 -34 6 C-32.38201799 5.67162727 -30.75485638 5.38817794 -29.125 5.125 C-24.12500506 4.26024145 -19.31841678 3.03682035 -14.4375 1.6640625 C-9.6164273 0.35062923 -4.99919848 -0.34085444 0 0 Z " fill="#3B6E99" transform="translate(285,96)"/>
<path d="M0 0 C0 0.33 0 0.66 0 1 C-2.70726366 1.5064814 -5.41557124 2.005351 -8.125 2.5 C-8.88554687 2.64308594 -9.64609375 2.78617187 -10.4296875 2.93359375 C-14.68042914 3.70312456 -18.65859197 4.16644376 -23 4 C-23 4.66 -23 5.32 -23 6 C-27.39445722 6.8407021 -31.79076996 7.6712735 -36.1875 8.5 C-37.43337891 8.73847656 -38.67925781 8.97695312 -39.96289062 9.22265625 C-41.7659668 9.56103516 -41.7659668 9.56103516 -43.60546875 9.90625 C-45.26292114 10.22045898 -45.26292114 10.22045898 -46.95385742 10.54101562 C-49.6982428 10.95453206 -52.23175475 11.09009749 -55 11 C-55.33 10.34 -55.66 9.68 -56 9 C-43.50271665 6.4388869 -30.99627775 3.93054459 -18.4375 1.6875 C-17.04035767 1.43081543 -17.04035767 1.43081543 -15.61499023 1.16894531 C-10.32237839 0.2417865 -5.37306921 -0.16927989 0 0 Z " fill="#5B83A8" transform="translate(340,86)"/>
<path d="M0 0 C0.66 0.33 1.32 0.66 2 1 C0.38050958 2.50594681 -1.24575974 4.00460668 -2.875 5.5 C-3.77992188 6.3353125 -4.68484375 7.170625 -5.6171875 8.03125 C-8 10 -8 10 -10 10 C-10.33 10.99 -10.66 11.98 -11 13 C-12.9609375 14.7890625 -12.9609375 14.7890625 -15.375 16.625 C-16.16648437 17.23601562 -16.95796875 17.84703125 -17.7734375 18.4765625 C-20 20 -20 20 -23 21 C-21.125 16.25 -21.125 16.25 -20 14 C-20.66 13.67 -21.32 13.34 -22 13 C-21.36908447 12.64172119 -20.73816895 12.28344238 -20.08813477 11.91430664 C-17.24530263 10.29870948 -14.40388601 8.68063903 -11.5625 7.0625 C-10.56927734 6.49853516 -9.57605469 5.93457031 -8.55273438 5.35351562 C-7.60849609 4.81533203 -6.66425781 4.27714844 -5.69140625 3.72265625 C-4.81685791 3.22515869 -3.94230957 2.72766113 -3.04125977 2.21508789 C-1.07742483 1.15939808 -1.07742483 1.15939808 0 0 Z " fill="#48749B" transform="translate(716,229)"/>
<path d="M0 0 C3.99415602 0.39945073 7.74925833 1.4210987 11.58984375 2.55859375 C13.13768555 3.01395508 13.13768555 3.01395508 14.71679688 3.47851562 C15.77962891 3.79498047 16.84246094 4.11144531 17.9375 4.4375 C20.05074725 5.0613131 22.16402766 5.68501389 24.27734375 6.30859375 C25.26460449 6.6010498 26.25186523 6.89350586 27.26904297 7.19482422 C30.50732168 8.14957509 33.7515702 9.08045871 37 10 C36.67 10.66 36.34 11.32 36 12 C28.7232002 11.44952706 22.25269424 9.77094807 15.3125 7.5625 C14.30638672 7.24990234 13.30027344 6.93730469 12.26367188 6.61523438 C7.4919508 5.12741363 2.73385776 3.60483423 -2 2 C-1.34 1.34 -0.68 0.68 0 0 Z " fill="#4F7BA2" transform="translate(176,295)"/>
<path d="M0 0 C1 2 1 2 0.0625 5.625 C-2.19391723 15.06231259 -1.47558674 25.66004251 -0.0234375 35.1796875 C-0.01570313 35.78039062 -0.00796875 36.38109375 0 37 C-0.66 37.66 -1.32 38.32 -2 39 C-2.66 35.7 -3.32 32.4 -4 29 C-4.33 29 -4.66 29 -5 29 C-5 23.06 -5 17.12 -5 11 C-4.34 11 -3.68 11 -3 11 C-3.0309375 9.3603125 -3.0309375 9.3603125 -3.0625 7.6875 C-3 4 -3 4 -2 1 C-1.34 0.67 -0.68 0.34 0 0 Z " fill="#2E6692" transform="translate(92,196)"/>
<path d="M0 0 C0.87140625 0.19335938 1.7428125 0.38671875 2.640625 0.5859375 C9.43648665 2.07161288 16.22115334 3.42724394 23.08984375 4.52734375 C27.73901299 5.28244372 32.36870119 6.14302739 37 7 C37 7.33 37 7.66 37 8 C29.53527143 9.27635255 23.63602381 8.43888061 16.3125 6.6875 C15.30638672 6.46126953 14.30027344 6.23503906 13.26367188 6.00195312 C8.41778271 4.8934999 3.68001862 3.69820096 -1 2 C-0.67 1.34 -0.34 0.68 0 0 Z " fill="#2E6692" transform="translate(213,305)"/>
<path d="M0 0 C11.55 0.33 23.1 0.66 35 1 C35 1.33 35 1.66 35 2 C29.34716195 3.28429918 23.83455648 3.18404161 18.0625 3.1875 C16.99064453 3.19974609 15.91878906 3.21199219 14.81445312 3.22460938 C9.49338293 3.23449372 4.96260452 3.18354599 0 1 C0 0.67 0 0.34 0 0 Z " fill="#3F729C" transform="translate(472,80)"/>
<path d="M0 0 C1.46373047 0.01353516 1.46373047 0.01353516 2.95703125 0.02734375 C4.06111328 0.04474609 4.06111328 0.04474609 5.1875 0.0625 C5.1875 0.3925 5.1875 0.7225 5.1875 1.0625 C-0.77115124 2.83338887 -6.5337523 4.34755181 -12.73828125 4.87109375 C-14.7549221 5.05718679 -16.75497329 5.401662 -18.75 5.75 C-19.760625 5.853125 -20.77125 5.95625 -21.8125 6.0625 C-22.4725 5.4025 -23.1325 4.7425 -23.8125 4.0625 C-21.75021534 3.58240738 -19.68766299 3.10346456 -17.625 2.625 C-15.90216797 2.22474609 -15.90216797 2.22474609 -14.14453125 1.81640625 C-13.04496094 1.56761719 -11.94539062 1.31882812 -10.8125 1.0625 C-9.966875 0.8665625 -9.12125 0.670625 -8.25 0.46875 C-5.46046761 0.00382794 -2.82633586 -0.03405224 0 0 Z " fill="#4F7BA2" transform="translate(554.8125,303.9375)"/>
<path d="M0 0 C0.66 0 1.32 0 2 0 C3 3 3 3 2.29296875 4.9375 C1.92816406 5.618125 1.56335938 6.29875 1.1875 7 C0.83042969 7.680625 0.47335938 8.36125 0.10546875 9.0625 C-0.85807569 10.75125633 -1.92149451 12.38224176 -3 14 C-3.99 13.67 -4.98 13.34 -6 13 C-6.33 16.3 -6.66 19.6 -7 23 C-7.66 23 -8.32 23 -9 23 C-8.34 19.37 -7.68 15.74 -7 12 C-6.34 12 -5.68 12 -5 12 C-4.7834375 10.576875 -4.7834375 10.576875 -4.5625 9.125 C-4 6 -4 6 -3 4 C-2.34 4 -1.68 4 -1 4 C-0.67 2.68 -0.34 1.36 0 0 Z " fill="#5580A6" transform="translate(96,184)"/>
<path d="M0 0 C-2.49927769 0.33970765 -4.99919595 0.67188032 -7.5 1 C-8.19609375 1.09539062 -8.8921875 1.19078125 -9.609375 1.2890625 C-14.44700129 1.9161622 -19.12181196 2.08789528 -24 2 C-23.67 1.01 -23.34 0.02 -23 -1 C-5.3918023 -3.05857844 -5.3918023 -3.05857844 0 0 Z " fill="#4B78A0" transform="translate(491,318)"/>
<path d="M0 0 C0.70189453 0.00451172 1.40378906 0.00902344 2.12695312 0.01367188 C3.85550538 0.02543073 5.58401365 0.04336546 7.3125 0.0625 C-2.08841531 5.23615809 -15.26912695 3.15876833 -25.6875 3.0625 C-25.6875 2.7325 -25.6875 2.4025 -25.6875 2.0625 C-24.63949219 2.00191406 -23.59148437 1.94132812 -22.51171875 1.87890625 C-21.13279952 1.79448262 -19.75389395 1.70983553 -18.375 1.625 C-17.68470703 1.58568359 -16.99441406 1.54636719 -16.28320312 1.50585938 C-10.70154731 1.1553206 -5.64022063 -0.06846206 0 0 Z " fill="#6488AB" transform="translate(440.6875,320.9375)"/>
<path d="M0 0 C0.33 0.66 0.66 1.32 1 2 C-1.22667765 2.67493341 -3.45645977 3.33963044 -5.6875 4 C-7.54955078 4.556875 -7.54955078 4.556875 -9.44921875 5.125 C-12.5010019 5.87703457 -14.88898362 6.19034899 -18 6 C-12.8021147 1.12698254 -7.0555806 -0.44097379 0 0 Z " fill="#3F6E99" transform="translate(578,298)"/>
<path d="M0 0 C0.66 0.33 1.32 0.66 2 1 C0.38050958 2.50594681 -1.24575974 4.00460668 -2.875 5.5 C-3.77992188 6.3353125 -4.68484375 7.170625 -5.6171875 8.03125 C-8 10 -8 10 -10 10 C-10.33 10.99 -10.66 11.98 -11 13 C-11.33 12.01 -11.66 11.02 -12 10 C-12.99 9.67 -13.98 9.34 -15 9 C-13.50146484 8.15115234 -13.50146484 8.15115234 -11.97265625 7.28515625 C-10.66922254 6.5443558 -9.36583975 5.80346575 -8.0625 5.0625 C-7.40314453 4.68931641 -6.74378906 4.31613281 -6.06445312 3.93164062 C-2.84167167 2.23037187 -2.84167167 2.23037187 0 0 Z " fill="#4B7AA0" transform="translate(716,229)"/>
<path d="M0 0 C2.29141286 -0.05384521 4.58318188 -0.09272087 6.875 -0.125 C8.78925781 -0.15980469 8.78925781 -0.15980469 10.7421875 -0.1953125 C14 0 14 0 16 2 C12.38132441 3.2062252 9.07493749 3.10816918 5.3125 3.0625 C4.61060547 3.05798828 3.90871094 3.05347656 3.18554688 3.04882812 C1.45699462 3.03706927 -0.27151365 3.01913454 -2 3 C-1.34 2.67 -0.68 2.34 0 2 C0 1.34 0 0.68 0 0 Z " fill="#0C3C72" transform="translate(433,235)"/>
<path d="M0 0 C-3.54153 2.0895027 -6.95737491 2.65045814 -11 3.25 C-12.216875 3.44078125 -13.43375 3.6315625 -14.6875 3.828125 C-17.96614673 3.99824346 -19.32273907 3.79376483 -22 2 C-19.46045692 1.46615306 -16.9193065 0.94769806 -14.375 0.4375 C-13.66214844 0.28603516 -12.94929687 0.13457031 -12.21484375 -0.02148438 C-7.83982036 -0.8844477 -4.41938826 -1.05256724 0 0 Z " fill="#2D6591" transform="translate(533,309)"/>
<path d="M0 0 C-1.98 0.33 -3.96 0.66 -6 1 C-6 1.66 -6 2.32 -6 3 C-9.96 4.32 -13.92 5.64 -18 7 C-18 6.34 -18 5.68 -18 5 C-18.66 4.67 -19.32 4.34 -20 4 C-17.42032203 3.13310822 -14.83723873 2.28126211 -12.25 1.4375 C-11.52039063 1.19064453 -10.79078125 0.94378906 -10.0390625 0.68945312 C-9.33007812 0.46064453 -8.62109375 0.23183594 -7.890625 -0.00390625 C-6.91657715 -0.32597046 -6.91657715 -0.32597046 -5.92285156 -0.65454102 C-3.66555462 -1.06008636 -2.16526518 -0.69296911 0 0 Z " fill="#6287AA" transform="translate(246,105)"/>
<path d="M0 0 C6.09796608 2.07330847 9.1638618 4.87109727 13 10 C12.01 10.33 11.02 10.66 10 11 C8.17578125 9.85546875 8.17578125 9.85546875 6.3125 8.1875 C5.68988281 7.64480469 5.06726563 7.10210937 4.42578125 6.54296875 C3 5 3 5 3 3 C2.01 2.67 1.02 2.34 0 2 C0 1.34 0 0.68 0 0 Z " fill="#517DA4" transform="translate(99,250)"/>
<path d="M0 0 C2.49609375 0.171875 2.49609375 0.171875 5.4375 0.75 C6.40558594 0.93046875 7.37367188 1.1109375 8.37109375 1.296875 C11 2 11 2 14 4 C13.67 4.33 13.34 4.66 13 5 C7.76242091 4.85665573 2.89342839 3.88208784 -2 2 C-1.34 1.34 -0.68 0.68 0 0 Z " fill="#5C84A8" transform="translate(199,302)"/>
<path d="M0 0 C0.66 0.33 1.32 0.66 2 1 C0.7028704 3.5942592 -0.37878345 3.79565726 -3 5 C-3.969375 5.556875 -4.93875 6.11375 -5.9375 6.6875 C-9.27565483 8.11813778 -10.61053509 8.09659159 -14 7 C-11.19665157 5.13110105 -8.48722906 3.72975092 -5.4375 2.3125 C-4.46683594 1.85488281 -3.49617187 1.39726563 -2.49609375 0.92578125 C-1.67238281 0.62027344 -0.84867188 0.31476563 0 0 Z " fill="#557FA5" transform="translate(181,125)"/>
<path d="M0 0 C1.04285156 -0.01417969 2.08570313 -0.02835937 3.16015625 -0.04296875 C5.9375 0.1875 5.9375 0.1875 8.9375 2.1875 C-0.4675 2.6825 -0.4675 2.6825 -10.0625 3.1875 C-10.0625 2.5275 -10.0625 1.8675 -10.0625 1.1875 C-6.67371636 0.16678204 -3.53093119 0.0218769 0 0 Z " fill="#346995" transform="translate(362.0625,83.8125)"/>
<path d="M0 0 C8.91 1.98 8.91 1.98 18 4 C17.34 4.66 16.68 5.32 16 6 C10.21525141 5.58410304 4.41117554 4.04747183 -1 2 C-0.67 1.34 -0.34 0.68 0 0 Z " fill="#3B6F9A" transform="translate(213,305)"/>
<path d="M0 0 C-1.15527311 3.46581934 -1.63086226 3.67870505 -4.75 5.25 C-7.61421306 6.60998606 -8.76793849 7.01933846 -12 6.75 C-12.66 6.5025 -13.32 6.255 -14 6 C-11.74402173 3.74402173 -9.95396133 3.03425808 -7 1.875 C-6.113125 1.52179688 -5.22625 1.16859375 -4.3125 0.8046875 C-2 0 -2 0 0 0 Z " fill="#3A6C98" transform="translate(648,273)"/>
<path d="M0 0 C0.66 0.33 1.32 0.66 2 1 C0.90410392 4.28768825 0.52272691 4.64293383 -2.3125 6.3125 C-2.90675781 6.67988281 -3.50101563 7.04726562 -4.11328125 7.42578125 C-6 8 -6 8 -8.23046875 7.10546875 C-9.10638672 6.55826172 -9.10638672 6.55826172 -10 6 C-8.3811004 4.96951963 -6.75467511 3.95085322 -5.125 2.9375 C-4.22007812 2.36902344 -3.31515625 1.80054688 -2.3828125 1.21484375 C-1.20332031 0.61349609 -1.20332031 0.61349609 0 0 Z " fill="#527DA3" transform="translate(151,139)"/>
<path d="M0 0 C4.95 0 9.9 0 15 0 C15 0.66 15 1.32 15 2 C10.38 2.33 5.76 2.66 1 3 C0.67 2.01 0.34 1.02 0 0 Z " fill="#648EAF" transform="translate(508,82)"/>
<path d="M0 0 C5.27749285 0.53851968 9.25645564 1.77343836 14 4 C13.67 4.66 13.34 5.32 13 6 C3.40546697 4.44191344 3.40546697 4.44191344 0 0 Z " fill="#376B97" transform="translate(163,290)"/>
<path d="M0 0 C4.47949133 1.42032652 8.78206754 2.93238605 13 5 C13.33 5.99 13.66 6.98 14 8 C3.90882638 4.90009699 3.90882638 4.90009699 0 2 C0 1.34 0 0.68 0 0 Z " fill="#43749E" transform="translate(150,284)"/>
<path d="M0 0 C0.66 0.66 1.32 1.32 2 2 C0.37660195 3.70884005 -1.29319053 5.37446717 -3 7 C-3.66 7 -4.32 7 -5 7 C-5.33 7.99 -5.66 8.98 -6 10 C-6.66 9.34 -7.32 8.68 -8 8 C-4 1.42857143 -4 1.42857143 0 0 Z " fill="#3F709A" transform="translate(114,166)"/>
<path d="M0 0 C0.66 0.66 1.32 1.32 2 2 C-4.4 3.35384615 -4.4 3.35384615 -7.4375 1.5625 C-7.953125 1.046875 -8.46875 0.53125 -9 0 C-5.64961743 -0.83759564 -3.2704774 -1.24052591 0 0 Z " fill="#37648B" transform="translate(454,234)"/>
<path d="M0 0 C0 1.65 0 3.3 0 5 C-1.65 5.66 -3.3 6.32 -5 7 C-5.99 6.01 -6.98 5.02 -8 4 C-1.125 0 -1.125 0 0 0 Z " fill="#21537F" transform="translate(468,225)"/>
<path d="M0 0 C0.66 0.66 1.32 1.32 2 2 C-2.62921525 3.0161692 -6.34462607 2.83796731 -11 2 C-6.93150591 -0.71232939 -4.83523216 -0.30699887 0 0 Z " fill="#537EA5" transform="translate(280,317)"/>
<path d="M0 0 C-0.33 0.66 -0.66 1.32 -1 2 C-4.4375 2.75 -4.4375 2.75 -8 3 C-8.66 2.34 -9.32 1.68 -10 1 C-6.21812119 -0.83691257 -4.05431692 -1.15837626 0 0 Z " fill="#537EA3" transform="translate(193,123)"/>
<path d="M0 0 C1.65 0 3.3 0 5 0 C5 0.99 5 1.98 5 3 C1.78548731 4.60725635 -1.43612536 4.05748185 -5 4 C-4.360625 3.71125 -3.72125 3.4225 -3.0625 3.125 C-0.84793921 2.17176549 -0.84793921 2.17176549 0 0 Z " fill="#275983" transform="translate(428,234)"/>
<path d="M0 0 C1.31625194 2.63250388 0.74813658 3.80179056 0.0625 6.625 C-0.13214844 7.44226563 -0.32679687 8.25953125 -0.52734375 9.1015625 C-0.68332031 9.72804687 -0.83929688 10.35453125 -1 11 C-1.66 10.67 -2.32 10.34 -3 10 C-2.88637738 8.5199159 -2.75877092 7.04089926 -2.625 5.5625 C-2.55539063 4.73878906 -2.48578125 3.91507813 -2.4140625 3.06640625 C-2.27742188 2.38449219 -2.14078125 1.70257813 -2 1 C-1.34 0.67 -0.68 0.34 0 0 Z " fill="#356B97" transform="translate(92,196)"/>
<path d="M0 0 C0.90105469 0.02707031 1.80210937 0.05414063 2.73046875 0.08203125 C3.76107422 0.13423828 3.76107422 0.13423828 4.8125 0.1875 C1.85071227 1.85860042 -0.55821192 2.51432752 -3.9375 2.8125 C-4.73671875 2.88726562 -5.5359375 2.96203125 -6.359375 3.0390625 C-6.96265625 3.08804687 -7.5659375 3.13703125 -8.1875 3.1875 C-5.67753317 0.01043235 -3.96125134 -0.15433447 0 0 Z " fill="#668BAD" transform="translate(568.1875,300.8125)"/>
<path d="M0 0 C-2.93127462 1.95418308 -4.55834679 2.64700993 -8 3 C-8.66 2.34 -9.32 1.68 -10 1 C-6.42181037 -1.33958553 -4.07775191 -0.9267618 0 0 Z " fill="#45739B" transform="translate(615,288)"/>
<path d="M0 0 C0.66 0 1.32 0 2 0 C2 2.97 2 5.94 2 9 C1.34 9 0.68 9 0 9 C-1.125 2.25 -1.125 2.25 0 0 Z " fill="#497395" transform="translate(555,217)"/>
<path d="M0 0 C0.66 0.66 1.32 1.32 2 2 C-5.625 3.25 -5.625 3.25 -9 1 C-5.75778445 -0.08073852 -3.39597063 -0.21676408 0 0 Z " fill="#336894" transform="translate(285,96)"/>
<path d="M0 0 C1.65 0 3.3 0 5 0 C4.67 1.32 4.34 2.64 4 4 C2.35 3.67 0.7 3.34 -1 3 C-0.67 2.01 -0.34 1.02 0 0 Z " fill="#346690" transform="translate(699,239)"/>
<path d="M0 0 C0.66 0.33 1.32 0.66 2 1 C-0.64 2.98 -3.28 4.96 -6 7 C-6.66 6.34 -7.32 5.68 -8 5 C-6.71475739 4.13619741 -5.42157581 3.28419631 -4.125 2.4375 C-3.04605469 1.72400391 -3.04605469 1.72400391 -1.9453125 0.99609375 C-1.30335938 0.66738281 -0.66140625 0.33867187 0 0 Z " fill="#759AB8" transform="translate(716,229)"/>
</svg>
