<?xml version="1.0" standalone="no"?>
<!DOCTYPE svg PUBLIC "-//W3C//DTD SVG 20010904//EN"
 "http://www.w3.org/TR/2001/REC-SVG-20010904/DTD/svg10.dtd">
<svg version="1.0" xmlns="http://www.w3.org/2000/svg"
 width="72.000000pt" height="36.000000pt" viewBox="0 0 72.000000 36.000000"
 preserveAspectRatio="xMidYMid meet">
<metadata>
Created by potrace 1.16, written by Peter Selinger 2001-2019
</metadata>
<g transform="translate(0.000000,36.000000) scale(0.009000,-0.009000)"
fill="#000000" stroke="none">
<path d="M4090 3193 c-202 -8 -628 -47 -800 -73 -602 -90 -1090 -216 -1500
-390 -650 -274 -988 -635 -916 -978 49 -235 245 -428 611 -603 739 -353 2033
-484 3290 -333 452 54 917 155 1295 281 468 156 793 326 1025 539 l50 45 -185
-95 c-560 -287 -1182 -486 -1930 -615 -982 -170 -1899 -159 -2557 30 -417 120
-675 334 -691 572 -6 93 9 160 53 249 91 181 277 358 561 534 130 81 482 254
646 318 597 234 1275 394 2028 480 103 11 110 14 70 20 -140 20 -754 32 -1050
19z"/>
<path d="M4205 2186 c-121 -30 -235 -107 -277 -189 -24 -48 -26 -128 -5 -179
54 -128 245 -207 472 -195 144 7 285 61 285 108 l0 21 -32 -22 c-105 -69 -225
-93 -334 -67 -115 29 -175 98 -189 219 -14 117 39 216 137 258 144 62 343 14
395 -95 9 -19 20 -35 25 -35 4 0 8 43 8 95 0 52 -3 95 -6 95 -3 0 -12 -7 -20
-15 -19 -19 -51 -19 -139 0 -83 17 -250 18 -320 1z"/>
<path d="M3073 2180 c80 -14 77 -3 77 -265 0 -263 1 -258 -81 -274 -28 -6 89
-9 328 -10 l373 -1 5 23 c7 30 25 149 25 165 0 24 -20 11 -39 -25 -23 -45 -63
-84 -111 -109 -45 -23 -257 -27 -283 -5 -15 12 -17 41 -17 241 0 259 -3 250
84 261 28 3 -52 6 -179 6 -149 1 -213 -2 -182 -7z"/>
<path d="M4831 2181 c82 -12 79 -3 79 -272 0 -176 -3 -240 -12 -245 -7 -4 -35
-13 -63 -20 -81 -20 456 -19 549 1 134 28 201 94 176 171 -14 42 -48 67 -125
89 -33 10 -67 20 -75 23 -8 2 5 10 30 17 97 26 130 54 130 110 0 33 -6 49 -27
70 -58 58 -70 60 -403 61 -168 1 -284 -1 -259 -5z m437 -37 c41 -26 51 -45 52
-90 0 -69 -70 -114 -177 -114 l-43 0 0 116 0 117 71 -6 c41 -3 82 -13 97 -23z
m-11 -250 c129 -46 123 -189 -10 -229 -67 -20 -89 -19 -121 6 -25 20 -26 24
-26 128 0 59 3 111 7 114 10 10 101 -2 150 -19z"/>
</g>
</svg>
